PathFileType	4	(X/Y/Z)	Patient4_TMGait_0pt4_03_left_13.trc.trc
DataRate	CameraRate	NumFrames	NumMarkers	Units	OrigDataRate	OrigDataStartFrame	OrigNumFrames
78.651685393258	78.651685393258	4	33	mm	78.651685393258	124	       141
Frame#	Time	Sacral			L.Shoulder			Chest			R.Shoulder			Neck			R.ASIS			L.ASIS			R.Thigh.Superior			R.Thigh.Lateral			R.Thigh.Inferior			R.Patella			L.Thigh.Superior			L.Thigh.Lateral			L.Thigh.Inferior			L.Patella			L.Shank.Superior			L.Shank.Lateral			L.Shank.Inferior			R.Shank.Superior			R.Shank.Lateral			R.Shank.Inferior			R.Heel			R.Midfoot.Superior			R.Midfoot.Lateral			R.Toe			L.Heel			L.Midfoot.Lateral			L.Midfoot.Superior			L.Toe			L.Elbow			L.Wrist			R.Elbow			R.Wrist			
		X1	Y1	Z1	X2	Y2	Z2	X3	Y3	Z3	X4	Y4	Z4	X5	Y5	Z5	X6	Y6	Z6	X7	Y7	Z7	X8	Y8	Z8	X9	Y9	Z9	X10	Y10	Z10	X11	Y11	Z11	X12	Y12	Z12	X13	Y13	Z13	X14	Y14	Z14	X15	Y15	Z15	X16	Y16	Z16	X17	Y17	Z17	X18	Y18	Z18	X19	Y19	Z19	X20	Y20	Z20	X21	Y21	Z21	X22	Y22	Z22	X23	Y23	Z23	X24	Y24	Z24	X25	Y25	Z25	X26	Y26	Z26	X27	Y27	Z27	X28	Y28	Z28	X29	Y29	Z29	X30	Y30	Z30	X31	Y31	Z31	X32	Y32	Z32	X33	Y33	Z33	

124	18.333857142857	834.720915679309	1002.014139299001	522.781591062838	997.518535248282	1431.056036594444	338.227103681745	1118.085787637488	1357.205166138551	484.296861422680	1058.045358278011	1425.813640054853	669.625890008634	1001.829231773650	1489.883226169255	497.391556352414	1068.508738910008	933.364971019070	622.448804618733	1037.530559817915	957.529804576524	350.740922001731	1073.426590629321	724.581806291404	592.736555265670	975.622546604636	625.986184134037	656.486243992987	1037.943722029151	564.066629236121	575.224670921988	1021.676742554732	477.562114924510	579.947842685748	1108.150136321914	764.940040805845	374.034192759746	1051.584871818847	639.365940462370	296.811715230438	1152.752194437941	575.752916974677	355.136636005099	1174.055598353291	508.226223679020	351.214424531747	1151.754931036241	436.480352023430	339.198586129569	1073.989672237854	314.751498519226	284.798477493414	1150.756484071241	206.395723885588	337.226835347545	982.205617323272	392.367076869055	586.575334489355	898.469347046490	298.822766352729	650.729542665177	923.375187154726	200.155172896405	584.088932971213	772.274784686568	43.533401260251	555.046185217006	943.841154713454	95.677528361274	589.319220214476	856.002196669942	36.785117596227	628.579779868979	1064.149829378154	41.519186742510	616.214721706119	1049.210672634808	39.112263763498	369.715896284253	1123.866924230214	37.798805264656	290.305502201906	1203.009884734642	104.971625976331	315.886599304212	1333.051134603597	61.012031924121	288.875621132522	885.109370602346	1095.494328101066	234.450104841557	908.054505237226	836.029033943615	199.102285465406	1132.035249139186	1084.775533756270	785.989621032538	1354.543797277226	971.517386781482	720.218375543713	
125	18.346571428571	835.664957517049	1001.568046593142	520.319337077405	998.067869416367	1430.318272069210	335.153574875377	1118.555059116578	1356.897946688949	481.485733319702	1058.090748682218	1425.553193124295	666.675144344390	1002.129280254059	1489.360216006613	494.290882703158	1069.349369116213	932.960897609101	620.631403909604	1038.784333423024	956.579217567982	348.834888538337	1073.103622154261	723.607817324592	591.696648673664	973.854483072632	625.895474757789	655.065875435794	1035.944658768861	563.219810717050	574.361035161714	1018.770979836799	476.833658313991	578.824015829313	1109.214952250066	763.472800241216	373.288956028787	1051.880033876794	637.968554228954	296.733734590400	1152.777557576128	574.462477923354	355.720997938939	1173.092290406568	505.970568839864	352.306221822255	1150.092655007133	433.945558670848	340.055500594600	1070.590082323933	313.321845255283	285.605462111079	1145.021489330906	203.790796379955	338.831911466633	978.893947249152	392.045110796238	585.712328744491	894.603200545823	299.187707898211	650.196480342561	918.888237282868	200.137032768124	583.814478566197	767.185993638346	43.768291708600	555.159844776907	938.775043360771	95.670694952509	589.379034697502	850.919191264968	36.778221881634	628.583808524061	1059.061471204142	41.376072050232	616.249053667842	1040.021561624368	38.650407951137	370.660923488845	1115.187152995259	36.553759757915	291.635698971530	1195.400508451379	101.944789876711	318.430665530611	1325.118370635805	55.731829615089	292.038158750127	885.749152202573	1094.594650862230	231.839748145053	910.231288060551	835.174007449913	196.691066573834	1130.485039953801	1084.305276326191	783.693836385050	1352.465236616952	970.491159214710	717.302377581622	
126	18.359285714286	836.627081964960	1001.267510829431	517.849041036438	998.782189108877	1429.637222856006	331.948375066118	1119.161946875041	1356.640908616429	478.560756838405	1058.291354891883	1425.433801876385	663.578588925823	1002.561946733321	1488.935359903461	491.016964079646	1070.179827354379	932.596671011227	618.659495936156	1039.984389027374	955.748055210706	346.886525203829	1072.874376493482	722.698298288281	590.551875455931	972.277374645550	625.834988836806	653.560710612338	1034.178176860798	562.436725269346	573.406590846814	1016.143795356050	476.116314436184	577.634914086835	1110.205536714681	762.177210173216	372.506912271557	1052.191066712228	636.904438264310	296.390342475562	1152.829728327718	573.475951007369	356.049019223823	1172.151407477687	504.122860755442	353.071636875417	1148.647307411644	431.866966978595	340.515059001348	1067.796360121350	312.212488675430	285.916452605618	1140.058028104085	201.738074603530	339.924588050611	975.784127689561	391.744655802921	584.791521630531	890.895727552409	299.636440594538	649.623414162735	914.531903531701	200.179244079964	583.527505383197	762.125406933316	44.134429996118	555.301475403193	933.775768923439	95.693184242651	589.455977497262	845.877595511221	36.816255788570	628.597296689189	1054.016196096484	41.193540467075	616.291811932021	1032.143642663029	38.365178358698	371.198515111797	1107.694215641070	35.766563049472	292.462142498188	1188.670510256354	99.743416675321	320.311533258085	1318.164644350424	51.861582255771	294.350652584396	886.733748338985	1093.712403141818	228.988570732084	912.978372043003	834.351192196688	194.001132922210	1128.682833895395	1083.920008088722	781.349822472572	1349.938920407227	968.902951991501	714.673586025460	
127	18.372000000000	837.580022313507	1001.129416227787	515.386112519939	999.639939479806	1429.033296568739	328.652733081940	1119.899070297021	1356.430871741842	475.541968401554	1058.678149945719	1425.464143353560	660.362944448448	1003.127078734093	1488.621470866109	487.607671385250	1070.973110195257	932.284013160710	616.537611515917	1041.083936589927	955.073245277011	344.856981440787	1072.703508738221	721.886792781115	589.250976940497	970.922007498837	625.811472852121	651.973669483245	1032.670588042819	561.735309300560	572.342933438197	1013.854447178960	475.405089220394	576.402740533460	1111.144784866105	761.186996676737	371.661994568595	1052.643734744122	636.226107233560	295.750239236468	1153.003083278609	572.833924964384	356.063838701398	1171.340896109531	502.716006028314	353.457020524806	1147.488433243839	430.251791094408	340.598174225241	1065.634098114983	311.446301027133	285.740070383396	1135.825091248317	200.217510901986	340.553274536044	972.911514148069	391.464105174695	583.823661469351	887.372805658679	300.176034070308	649.010315757838	910.326627061403	200.289186897671	583.231431999845	757.099395358600	44.670902433673	555.468880203267	928.857268726505	95.750504537952	589.550092881943	840.883598147134	36.920872091157	628.623540840303	1049.020041016612	40.967427925972	616.342657954744	1025.474362805273	38.235137035702	371.412043712813	1101.280215460340	35.365408715682	292.865376701176	1182.751257875735	98.302114335818	321.555754644662	1312.105872737807	49.279849965312	295.835138607452	888.087451039157	1092.863076919524	225.902992859843	916.284828507657	833.579553306332	191.050338970715	1126.636820987432	1083.631454730047	778.958949428845	1346.956436695612	966.748751448877	712.336166823759	
